<svg width="23" height="24" viewBox="0 0 23 24" fill="none" xmlns="http://www.w3.org/2000/svg">
<path d="M7.31405 15.2799C7.31456 15.4496 7.3525 15.617 7.42513 15.7704C7.49778 15.9237 7.60336 16.0592 7.73433 16.1671L7.7263 16.1671C7.87876 16.2958 8.00126 16.4562 8.08531 16.6372C8.16935 16.8182 8.21289 17.0153 8.21292 17.2148C8.21289 17.4143 8.16937 17.6114 8.08529 17.7924C8.00126 17.9733 7.87874 18.1338 7.7263 18.2625L7.73433 18.2625C7.55053 18.415 7.41821 18.6205 7.35545 18.8509C7.29271 19.0814 7.30255 19.3256 7.38368 19.5503C7.46482 19.7749 7.61322 19.9691 7.80875 20.1063C8.00427 20.2435 8.23733 20.317 8.47618 20.3169C8.71503 20.3168 8.94803 20.243 9.14339 20.1057C9.3388 19.9683 9.48703 19.774 9.56796 19.5493C9.64887 19.3245 9.65852 19.0804 9.59555 18.8499C9.53259 18.6195 9.40012 18.4142 9.21616 18.2618L9.22441 18.2616C9.07197 18.1329 8.94943 17.9725 8.86537 17.7915C8.78134 17.6105 8.73782 17.4134 8.73779 17.2139C8.73782 17.0144 8.78134 16.8172 8.8654 16.6363C8.94945 16.4553 9.07195 16.2949 9.22441 16.1662L9.21616 16.1664C9.36586 16.0414 9.48161 15.8806 9.55265 15.6989C9.62367 15.5173 9.64771 15.3206 9.62251 15.1272C9.59731 14.9338 9.5237 14.7499 9.40849 14.5925C9.29327 14.4351 9.1402 14.3094 8.96343 14.2269C8.78667 14.1444 8.59196 14.1079 8.39732 14.1207C8.20269 14.1335 8.01445 14.1952 7.85004 14.3002C7.68563 14.4051 7.55035 14.5499 7.45676 14.721C7.36319 14.8922 7.31434 15.0841 7.31472 15.2792L7.31405 15.2799Z" fill="#292929"/>
<path d="M6.84265 18.1015L6.8344 18.1018C6.9659 17.9943 7.0719 17.859 7.14473 17.7055C7.21754 17.5521 7.25537 17.3844 7.25544 17.2146C7.25548 17.0448 7.21781 16.877 7.14509 16.7236C7.07239 16.5701 6.96651 16.4347 6.83507 16.3271L6.84332 16.3269C6.69086 16.1982 6.56836 16.0377 6.48428 15.8568C6.40025 15.6758 6.35673 15.4787 6.3567 15.2792C6.35673 15.0797 6.40025 14.8825 6.48431 14.7016C6.56836 14.5206 6.69086 14.3602 6.84332 14.2315L6.83507 14.2317C7.01905 14.0793 7.15151 13.8739 7.21444 13.6435C7.27739 13.413 7.26769 13.1688 7.1867 12.944C7.1057 12.7193 6.95736 12.525 6.7619 12.3877C6.56644 12.2503 6.33338 12.1766 6.09448 12.1767C5.85561 12.1766 5.62253 12.2503 5.42707 12.3877C5.23161 12.525 5.08327 12.7193 5.00228 12.944C4.92128 13.1688 4.9116 13.413 4.97453 13.6435C5.03745 13.8739 5.16993 14.0793 5.35391 14.2317L5.34565 14.2315C5.49814 14.3602 5.62071 14.5206 5.70479 14.7016C5.78888 14.8825 5.83242 15.0797 5.83245 15.2792C5.83243 15.4787 5.78888 15.6759 5.7048 15.8568C5.6207 16.0378 5.49814 16.1982 5.34565 16.3269L5.35391 16.3271C5.2224 16.4346 5.11638 16.5699 5.04357 16.7233C4.97074 16.8767 4.93293 17.0445 4.93287 17.2143C4.9328 17.3841 4.9705 17.5519 5.04319 17.7053C5.11591 17.8588 5.2218 17.9942 5.35324 18.1018L5.34521 18.1018C5.49761 18.2305 5.62008 18.391 5.70411 18.5719C5.7881 18.7529 5.83165 18.95 5.83165 19.1495C5.83164 19.349 5.78811 19.5461 5.7041 19.727C5.62008 19.908 5.49761 20.0684 5.34521 20.1972L5.35324 20.1972C5.16926 20.3495 5.03678 20.555 4.97385 20.7854C4.91093 21.0159 4.92061 21.2601 5.00161 21.4849C5.0826 21.7096 5.23094 21.9039 5.4264 22.0412C5.62186 22.1785 5.85494 22.2522 6.09381 22.2522C6.33271 22.2522 6.56577 22.1785 6.76123 22.0412C6.95669 21.9039 7.10503 21.7096 7.18603 21.4849C7.26702 21.2601 7.27672 21.0159 7.21379 20.7854C7.15085 20.555 7.01838 20.3496 6.8344 20.1972L6.84265 20.197C6.69019 20.0682 6.56769 19.9078 6.48364 19.7268C6.39958 19.5459 6.35606 19.3488 6.35603 19.1492C6.35606 18.9497 6.39958 18.7526 6.48364 18.5717C6.56769 18.3907 6.69019 18.2303 6.84265 18.1015Z" fill="#292929"/>
<path d="M4.8988 19.1495C4.89832 18.9798 4.86037 18.8123 4.78768 18.659C4.71499 18.5057 4.60934 18.3703 4.47829 18.2625L4.48655 18.2623C4.33406 18.1335 4.21149 17.973 4.12744 17.792C4.04338 17.611 3.99986 17.4138 3.99991 17.2142C3.99996 17.0146 4.04355 16.8175 4.12769 16.6365C4.21182 16.4555 4.33445 16.2951 4.487 16.1664L4.47874 16.1666C4.6626 16.0143 4.79501 15.8089 4.85788 15.5785C4.92075 15.3481 4.91101 15.104 4.83004 14.8793C4.74905 14.6547 4.60075 14.4605 4.40535 14.3232C4.20995 14.1859 3.97695 14.1123 3.73816 14.1123C3.49937 14.1123 3.26637 14.186 3.07098 14.3232C2.87558 14.4605 2.72727 14.6547 2.6463 14.8793C2.5653 15.104 2.55559 15.3481 2.61846 15.5785C2.68131 15.8089 2.81371 16.0143 2.99758 16.1666L2.98955 16.1666C3.14201 16.2953 3.26451 16.4558 3.34856 16.6367C3.4326 16.8177 3.47615 17.0148 3.47615 17.2143C3.47616 17.4139 3.43261 17.611 3.34856 17.7919C3.26451 17.9729 3.14201 18.1333 2.98955 18.262L2.99758 18.262C2.8479 18.3871 2.73221 18.5479 2.66122 18.7296C2.59022 18.9112 2.56624 19.1079 2.59148 19.3013C2.6167 19.4946 2.69036 19.6786 2.80558 19.8359C2.92083 19.9933 3.07392 20.119 3.25066 20.2014C3.42743 20.2839 3.62213 20.3204 3.81675 20.3075C4.01138 20.2947 4.19961 20.233 4.36401 20.128C4.52839 20.0231 4.66364 19.8783 4.75722 19.7072C4.85078 19.536 4.89963 19.3441 4.89925 19.149L4.8988 19.1495Z" fill="#292929"/>
<path d="M12.6264 12.229L13.2737 12.8763L12.8853 13.2647C12.6086 13.5414 12.3258 13.6902 12.0372 13.7111C11.7455 13.7289 11.4464 13.5846 11.1399 13.2781L10.1489 12.2871L9.84535 12.5906L9.21146 11.9567L9.51502 11.6532L8.90791 11.0461L9.67126 10.2827L10.2784 10.8898L10.7783 10.3899L11.4122 11.0237L10.9122 11.5237L11.9122 12.5237C11.9866 12.5981 12.058 12.6338 12.1265 12.6308C12.1949 12.6278 12.2708 12.5847 12.3541 12.5013L12.6264 12.229ZM11.333 9.31738C11.1991 9.4513 11.0503 9.52273 10.8866 9.53166C10.7229 9.53463 10.583 9.47809 10.467 9.36202C10.3479 9.24298 10.2914 9.10311 10.2973 8.94241C10.3033 8.77575 10.3732 8.62546 10.5071 8.49154C10.6381 8.3606 10.7854 8.29364 10.9491 8.29066C11.1128 8.28174 11.2541 8.33679 11.3732 8.45583C11.4892 8.5719 11.5443 8.71326 11.5383 8.87991C11.5324 9.04062 11.4639 9.18644 11.333 9.31738ZM11.9713 9.19686L14.4622 11.6878L13.6989 12.4511L11.208 9.9602L11.9713 9.19686ZM13.6137 10.0364C13.3578 9.7805 13.1807 9.5082 13.0825 9.21953C12.9873 8.92788 12.9709 8.64665 13.0334 8.37583C13.0959 8.10501 13.2298 7.86693 13.4352 7.66159C13.6108 7.48601 13.7997 7.36845 14.0021 7.30893C14.2074 7.24644 14.4039 7.23751 14.5913 7.28215L14.2387 6.92949L15.002 6.16615L17.4929 8.65706L16.7296 9.42041L16.3769 9.06775C16.4186 9.25821 16.4082 9.45612 16.3457 9.66146C16.2862 9.86383 16.1686 10.0528 15.993 10.2284C15.7907 10.4308 15.5541 10.5632 15.2833 10.6257C15.0095 10.6852 14.7268 10.6673 14.4351 10.5721C14.1435 10.4709 13.8697 10.2924 13.6137 10.0364ZM15.4841 8.17495C15.2937 7.98449 15.0898 7.88777 14.8726 7.88479C14.6583 7.87884 14.4753 7.95175 14.3235 8.10353C14.1717 8.2553 14.0973 8.43981 14.1003 8.65706C14.1033 8.86836 14.2 9.06924 14.3905 9.2597C14.5809 9.45017 14.7848 9.54986 15.002 9.55879C15.2193 9.56177 15.4038 9.48737 15.5556 9.33559C15.7073 9.18381 15.7803 9.00079 15.7743 8.78652C15.7713 8.56927 15.6746 8.36541 15.4841 8.17495ZM17.0453 4.06936C17.3369 3.77771 17.6643 3.64082 18.0273 3.65867C18.3904 3.67058 18.7371 3.8417 19.0675 4.17203L20.5227 5.6273L19.7638 6.38618L18.4112 5.03358C18.2446 4.86693 18.072 4.78062 17.8934 4.77467C17.7149 4.76872 17.5527 4.83866 17.4068 4.98448C17.261 5.1303 17.1911 5.2925 17.197 5.47106C17.203 5.64962 17.2893 5.82222 17.4559 5.98888L18.8085 7.34147L18.0452 8.10482L15.5543 5.6139L16.3176 4.85056L16.648 5.1809C16.6152 4.99341 16.6331 4.80294 16.7015 4.6095C16.767 4.41309 16.8816 4.23304 17.0453 4.06936Z" fill="#292929"/>
</svg>
